<svg xmlns="http://www.w3.org/2000/svg" viewBox="0 0 64 64">
  <defs>
    <linearGradient id="g" x1="0%" y1="0%" x2="100%" y2="100%">
      <stop offset="0%" stop-color="#163649" />
      <stop offset="100%" stop-color="#c8a56f" />
    </linearGradient>
  </defs>
  <rect width="64" height="64" rx="16" fill="#f8f4ec" />
  <path
    d="M14 40c4-7 9-10 15-10 4 0 7 1 10 3 3 2 6 3 11 3 2 0 4-.3 6-1v7c-2 1-4 1-7 1-5 0-8-1-11-3-3-2-6-3-9-3-5 0-9 3-13 10l-2-7Z"
    fill="url(#g)"
  />
  <circle cx="22" cy="22" r="7" fill="#c8a56f" />
</svg>
